<svg xmlns="http://www.w3.org/2000/svg" width="1400" height="1000" viewBox="0 0 1400 1000">
<defs>
<linearGradient id="g44" x1="0" y1="0" x2="1" y2="1">
<stop offset="0" stop-color="#08101a"/><stop offset="1" stop-color="#1e3d5c"/>
</linearGradient>
<filter id="n44"><feTurbulence type="fractalNoise" baseFrequency="0.9" numOctaves="3"/><feColorMatrix type="saturate" values="0"/></filter>
</defs>
<rect width="1400" height="1000" fill="url(#g44)"/>
<g><circle cx="354.4" cy="269.5" r="560.7" fill="none" stroke="#1e3d5c" stroke-width="1.53" opacity="0.30"/><circle cx="433.1" cy="950.8" r="530.2" fill="none" stroke="#1e3d5c" stroke-width="1.62" opacity="0.42"/><circle cx="834.0" cy="765.1" r="69.2" fill="none" stroke="#1e3d5c" stroke-width="1.11" opacity="0.46"/><circle cx="730.4" cy="663.0" r="553.0" fill="none" stroke="#1e3d5c" stroke-width="1.82" opacity="0.26"/><circle cx="249.1" cy="705.1" r="234.7" fill="none" stroke="#1e3d5c" stroke-width="0.54" opacity="0.22"/><circle cx="276.7" cy="847.5" r="456.1" fill="none" stroke="#1e3d5c" stroke-width="1.16" opacity="0.20"/><circle cx="418.3" cy="340.4" r="319.5" fill="none" stroke="#1e3d5c" stroke-width="1.13" opacity="0.20"/><circle cx="303.9" cy="304.7" r="400.4" fill="none" stroke="#1e3d5c" stroke-width="1.30" opacity="0.15"/><circle cx="560.5" cy="97.6" r="370.2" fill="none" stroke="#7cc4ff" stroke-width="0.59" opacity="0.41"/><circle cx="1287.2" cy="705.2" r="527.4" fill="none" stroke="#1e3d5c" stroke-width="1.17" opacity="0.43"/><circle cx="883.0" cy="431.7" r="110.7" fill="none" stroke="#1e3d5c" stroke-width="1.60" opacity="0.20"/><circle cx="362.8" cy="891.6" r="181.4" fill="none" stroke="#1e3d5c" stroke-width="1.15" opacity="0.31"/><circle cx="1150.9" cy="574.2" r="113.9" fill="none" stroke="#7cc4ff" stroke-width="1.07" opacity="0.44"/><circle cx="340.4" cy="350.2" r="263.3" fill="none" stroke="#7cc4ff" stroke-width="1.92" opacity="0.15"/><circle cx="253.6" cy="35.6" r="396.0" fill="none" stroke="#1e3d5c" stroke-width="1.78" opacity="0.24"/><circle cx="802.2" cy="835.1" r="357.1" fill="none" stroke="#1e3d5c" stroke-width="0.70" opacity="0.37"/><circle cx="333.3" cy="972.9" r="514.5" fill="none" stroke="#1e3d5c" stroke-width="0.46" opacity="0.30"/><circle cx="927.4" cy="380.2" r="552.1" fill="none" stroke="#1e3d5c" stroke-width="0.68" opacity="0.38"/><circle cx="1190.9" cy="780.2" r="440.6" fill="none" stroke="#7cc4ff" stroke-width="1.15" opacity="0.43"/><circle cx="633.8" cy="183.8" r="426.3" fill="none" stroke="#1e3d5c" stroke-width="1.99" opacity="0.46"/><circle cx="436.6" cy="512.5" r="512.8" fill="none" stroke="#7cc4ff" stroke-width="0.82" opacity="0.30"/><circle cx="978.1" cy="98.9" r="440.4" fill="none" stroke="#1e3d5c" stroke-width="1.99" opacity="0.27"/><rect x="0" y="856.0" width="1400" height="2.0" fill="#7cc4ff" opacity="0.15"/><rect x="0" y="737.6" width="1400" height="21.6" fill="#1e3d5c" opacity="0.20"/><rect x="0" y="166.5" width="1400" height="22.5" fill="#1e3d5c" opacity="0.23"/><rect x="0" y="112.1" width="1400" height="22.1" fill="#1e3d5c" opacity="0.12"/><rect x="0" y="35.2" width="1400" height="17.1" fill="#1e3d5c" opacity="0.11"/><rect x="0" y="439.5" width="1400" height="22.7" fill="#1e3d5c" opacity="0.13"/><rect x="0" y="299.0" width="1400" height="5.4" fill="#7cc4ff" opacity="0.26"/><rect x="0" y="251.5" width="1400" height="9.2" fill="#1e3d5c" opacity="0.23"/><rect x="0" y="700.2" width="1400" height="3.7" fill="#1e3d5c" opacity="0.22"/><rect x="446.8" y="311.8" width="481.2" height="539.7" fill="#7cc4ff" opacity="0.9"/><line x1="1199.9" y1="483.8" x2="1208.9" y2="483.8" stroke="#7cc4ff" stroke-width="1" opacity="0.52"/><line x1="519.9" y1="336.9" x2="531.1" y2="336.9" stroke="#7cc4ff" stroke-width="1" opacity="0.33"/><line x1="415.8" y1="402.6" x2="426.8" y2="402.6" stroke="#7cc4ff" stroke-width="1" opacity="0.56"/><line x1="667.6" y1="352.3" x2="678.3" y2="352.3" stroke="#7cc4ff" stroke-width="1" opacity="0.36"/><line x1="773.5" y1="997.0" x2="805.3" y2="997.0" stroke="#7cc4ff" stroke-width="1" opacity="0.44"/><line x1="495.0" y1="691.5" x2="511.8" y2="691.5" stroke="#7cc4ff" stroke-width="1" opacity="0.26"/><line x1="446.8" y1="656.4" x2="460.3" y2="656.4" stroke="#7cc4ff" stroke-width="1" opacity="0.41"/><line x1="478.8" y1="298.2" x2="493.3" y2="298.2" stroke="#7cc4ff" stroke-width="1" opacity="0.67"/><line x1="946.9" y1="853.9" x2="974.2" y2="853.9" stroke="#7cc4ff" stroke-width="1" opacity="0.63"/><line x1="1120.1" y1="939.1" x2="1152.1" y2="939.1" stroke="#7cc4ff" stroke-width="1" opacity="0.59"/><line x1="519.0" y1="828.0" x2="548.6" y2="828.0" stroke="#7cc4ff" stroke-width="1" opacity="0.29"/><line x1="935.1" y1="542.0" x2="966.3" y2="542.0" stroke="#7cc4ff" stroke-width="1" opacity="0.50"/><line x1="225.9" y1="77.0" x2="250.6" y2="77.0" stroke="#7cc4ff" stroke-width="1" opacity="0.35"/><line x1="132.8" y1="345.9" x2="160.1" y2="345.9" stroke="#7cc4ff" stroke-width="1" opacity="0.51"/><line x1="320.0" y1="665.2" x2="353.9" y2="665.2" stroke="#7cc4ff" stroke-width="1" opacity="0.47"/><line x1="179.7" y1="864.0" x2="193.7" y2="864.0" stroke="#7cc4ff" stroke-width="1" opacity="0.26"/><line x1="901.8" y1="342.4" x2="924.8" y2="342.4" stroke="#7cc4ff" stroke-width="1" opacity="0.55"/><line x1="653.4" y1="659.2" x2="679.3" y2="659.2" stroke="#7cc4ff" stroke-width="1" opacity="0.40"/><line x1="1266.8" y1="475.3" x2="1291.1" y2="475.3" stroke="#7cc4ff" stroke-width="1" opacity="0.50"/><line x1="381.9" y1="932.0" x2="389.6" y2="932.0" stroke="#7cc4ff" stroke-width="1" opacity="0.32"/><line x1="739.3" y1="791.8" x2="747.2" y2="791.8" stroke="#7cc4ff" stroke-width="1" opacity="0.56"/><line x1="72.3" y1="920.6" x2="102.8" y2="920.6" stroke="#7cc4ff" stroke-width="1" opacity="0.46"/><line x1="993.7" y1="937.7" x2="1002.1" y2="937.7" stroke="#7cc4ff" stroke-width="1" opacity="0.39"/><line x1="825.0" y1="114.2" x2="840.0" y2="114.2" stroke="#7cc4ff" stroke-width="1" opacity="0.28"/><line x1="63.8" y1="845.5" x2="92.5" y2="845.5" stroke="#7cc4ff" stroke-width="1" opacity="0.21"/><line x1="1337.5" y1="278.0" x2="1348.1" y2="278.0" stroke="#7cc4ff" stroke-width="1" opacity="0.41"/><line x1="439.2" y1="916.4" x2="460.3" y2="916.4" stroke="#7cc4ff" stroke-width="1" opacity="0.21"/><line x1="793.7" y1="291.4" x2="807.1" y2="291.4" stroke="#7cc4ff" stroke-width="1" opacity="0.50"/><line x1="449.0" y1="14.3" x2="484.0" y2="14.3" stroke="#7cc4ff" stroke-width="1" opacity="0.51"/><line x1="442.2" y1="798.1" x2="451.0" y2="798.1" stroke="#7cc4ff" stroke-width="1" opacity="0.61"/><line x1="1133.9" y1="272.4" x2="1155.0" y2="272.4" stroke="#7cc4ff" stroke-width="1" opacity="0.32"/><line x1="1061.3" y1="669.5" x2="1093.9" y2="669.5" stroke="#7cc4ff" stroke-width="1" opacity="0.37"/><line x1="604.3" y1="712.4" x2="618.0" y2="712.4" stroke="#7cc4ff" stroke-width="1" opacity="0.29"/><line x1="512.1" y1="279.4" x2="520.2" y2="279.4" stroke="#7cc4ff" stroke-width="1" opacity="0.23"/><line x1="1087.8" y1="676.3" x2="1115.8" y2="676.3" stroke="#7cc4ff" stroke-width="1" opacity="0.47"/><line x1="1177.9" y1="592.4" x2="1198.6" y2="592.4" stroke="#7cc4ff" stroke-width="1" opacity="0.38"/><line x1="662.3" y1="70.1" x2="698.3" y2="70.1" stroke="#7cc4ff" stroke-width="1" opacity="0.40"/><line x1="693.0" y1="64.1" x2="701.6" y2="64.1" stroke="#7cc4ff" stroke-width="1" opacity="0.38"/><line x1="478.1" y1="420.8" x2="496.6" y2="420.8" stroke="#7cc4ff" stroke-width="1" opacity="0.47"/><line x1="957.2" y1="353.9" x2="968.5" y2="353.9" stroke="#7cc4ff" stroke-width="1" opacity="0.34"/><line x1="866.4" y1="745.6" x2="900.5" y2="745.6" stroke="#7cc4ff" stroke-width="1" opacity="0.29"/><line x1="438.6" y1="850.7" x2="453.0" y2="850.7" stroke="#7cc4ff" stroke-width="1" opacity="0.33"/><line x1="336.3" y1="233.2" x2="370.8" y2="233.2" stroke="#7cc4ff" stroke-width="1" opacity="0.36"/><line x1="564.2" y1="10.6" x2="585.1" y2="10.6" stroke="#7cc4ff" stroke-width="1" opacity="0.48"/></g>
<rect width="1400" height="1000" filter="url(#n44)" opacity="0.14" style="mix-blend-mode:overlay"/>
</svg>